<svg xmlns="http://www.w3.org/2000/svg" viewBox="0 0 638.13 506.4"><defs><style>.cls-1{fill:#d3b875;}.cls-2{fill:#b78c58;}.cls-3{fill:#f2d08b;}.cls-4,.cls-5{fill:#846b3d;}.cls-4{opacity:0.6;}.cls-6{fill:#fff;}.cls-7{fill:#4c402c;}</style></defs><title>box</title><g id="Layer_2" data-name="Layer 2"><g id="Layer_1-2" data-name="Layer 1"><polygon class="cls-1" points="398 506.4 0 381.35 0 84.77 398 169.5 398 506.4"/><polygon class="cls-2" points="638.13 369.89 398 506.4 398 169.5 638.13 53.94 638.13 369.89"/><polygon class="cls-3" points="0 84.77 242.92 0 638.13 53.94 398 169.5 0 84.77"/><polygon class="cls-4" points="115.52 44.46 490.61 126.6 498.32 260.9 511.53 280.17 518.07 255.4 526.94 263.11 535.75 245.49 542.35 255.4 533.85 104.12 148.59 32.92 115.52 44.46"/><polygon class="cls-4" points="163.51 119.58 398 21.17 437.9 26.61 212.92 130.1 163.51 119.58"/><polygon class="cls-5" points="163.51 119.58 163.51 432.73 212.92 448.25 212.92 130.1 163.51 119.58"/><path class="cls-6" d="M486.21,421.08c0,3.65-2.72,4.9-6.61,6.6l-40.73,20.57c-5.5,2.74-6.6-3-6.6-6.61V378.89c0-3.64,2.38-4.51,6.6-6.6l40.73-20.57c8.63-4.4,6,4.55,6.61,21.47Z"/><polygon class="cls-7" points="436.44 385.07 476.87 365.43 476.87 367.69 436.44 388.01 436.44 385.07"/><polygon class="cls-7" points="436.44 392.81 476.87 373.16 476.87 375.42 436.44 395.75 436.44 392.81"/><polygon class="cls-7" points="436.44 401.49 476.87 381.85 476.87 384.1 436.44 404.43 436.44 401.49"/><polygon class="cls-7" points="437.4 425.31 462.95 412.89 463.27 415.24 437.4 428.24 437.4 425.31"/><polygon class="cls-7" points="437.4 431.18 462.95 418.76 463.27 421.11 437.4 434.11 437.4 431.18"/><polygon class="cls-7" points="437.4 437.17 462.95 424.75 463.27 427.1 437.4 440.1 437.4 437.17"/></g></g></svg>